<svg width="414" height="736" viewBox="0 0 414 736" fill="none" xmlns="http://www.w3.org/2000/svg">
<rect width="414" height="736" fill="black"/>
<path d="M109.523 353.909H113.727L123.614 378.057H123.955L133.841 353.909H138.045V383H134.75V360.898H134.466L125.375 383H122.193L113.102 360.898H112.818V383H109.523V353.909ZM153.518 383.455C151.548 383.455 149.82 382.986 148.333 382.048C146.856 381.111 145.701 379.799 144.867 378.114C144.043 376.428 143.631 374.458 143.631 372.205C143.631 369.932 144.043 367.948 144.867 366.253C145.701 364.558 146.856 363.241 148.333 362.304C149.82 361.366 151.548 360.898 153.518 360.898C155.487 360.898 157.211 361.366 158.688 362.304C160.175 363.241 161.33 364.558 162.154 366.253C162.987 367.948 163.404 369.932 163.404 372.205C163.404 374.458 162.987 376.428 162.154 378.114C161.33 379.799 160.175 381.111 158.688 382.048C157.211 382.986 155.487 383.455 153.518 383.455ZM153.518 380.443C155.014 380.443 156.245 380.06 157.211 379.293C158.177 378.526 158.892 377.517 159.356 376.267C159.82 375.017 160.052 373.663 160.052 372.205C160.052 370.746 159.82 369.387 159.356 368.128C158.892 366.868 158.177 365.85 157.211 365.074C156.245 364.297 155.014 363.909 153.518 363.909C152.022 363.909 150.79 364.297 149.825 365.074C148.859 365.85 148.144 366.868 147.68 368.128C147.216 369.387 146.984 370.746 146.984 372.205C146.984 373.663 147.216 375.017 147.68 376.267C148.144 377.517 148.859 378.526 149.825 379.293C150.79 380.06 152.022 380.443 153.518 380.443ZM185.581 361.182L177.513 383H174.104L166.036 361.182H169.672L175.695 378.568H175.922L181.945 361.182H185.581ZM190.006 383V361.182H193.358V383H190.006ZM191.71 357.545C191.057 357.545 190.493 357.323 190.02 356.878C189.556 356.433 189.324 355.898 189.324 355.273C189.324 354.648 189.556 354.113 190.02 353.668C190.493 353.223 191.057 353 191.71 353C192.364 353 192.922 353.223 193.386 353.668C193.86 354.113 194.097 354.648 194.097 355.273C194.097 355.898 193.86 356.433 193.386 356.878C192.922 357.323 192.364 357.545 191.71 357.545ZM208.646 383.455C206.543 383.455 204.73 382.991 203.205 382.062C201.69 381.125 200.521 379.818 199.697 378.142C198.882 376.456 198.475 374.496 198.475 372.261C198.475 370.027 198.882 368.057 199.697 366.352C200.521 364.638 201.666 363.303 203.134 362.347C204.612 361.381 206.335 360.898 208.305 360.898C209.441 360.898 210.563 361.087 211.671 361.466C212.779 361.845 213.788 362.46 214.697 363.312C215.606 364.155 216.33 365.273 216.87 366.665C217.41 368.057 217.68 369.771 217.68 371.807V373.227H200.862V370.33H214.271C214.271 369.098 214.024 368 213.532 367.034C213.049 366.068 212.358 365.306 211.458 364.747C210.568 364.188 209.517 363.909 208.305 363.909C206.969 363.909 205.814 364.241 204.839 364.903C203.873 365.557 203.129 366.409 202.609 367.46C202.088 368.511 201.827 369.638 201.827 370.841V372.773C201.827 374.42 202.112 375.817 202.68 376.963C203.257 378.099 204.058 378.966 205.08 379.562C206.103 380.15 207.291 380.443 208.646 380.443C209.526 380.443 210.322 380.32 211.032 380.074C211.752 379.818 212.372 379.439 212.893 378.938C213.414 378.426 213.816 377.792 214.1 377.034L217.339 377.943C216.998 379.042 216.425 380.008 215.62 380.841C214.815 381.665 213.821 382.309 212.637 382.773C211.453 383.227 210.123 383.455 208.646 383.455ZM235.677 383H231.984L242.665 353.909H246.302L256.984 383H253.29L244.597 358.511H244.37L235.677 383ZM237.04 371.636H251.927V374.761H237.04V371.636ZM261.06 391.182V361.182H264.299V364.648H264.697C264.943 364.269 265.284 363.786 265.719 363.199C266.165 362.602 266.799 362.072 267.623 361.608C268.456 361.134 269.583 360.898 271.004 360.898C272.841 360.898 274.46 361.357 275.862 362.276C277.263 363.194 278.357 364.496 279.143 366.182C279.929 367.867 280.322 369.856 280.322 372.148C280.322 374.458 279.929 376.461 279.143 378.156C278.357 379.842 277.268 381.149 275.876 382.077C274.484 382.995 272.879 383.455 271.06 383.455C269.659 383.455 268.537 383.223 267.694 382.759C266.851 382.285 266.202 381.75 265.748 381.153C265.293 380.547 264.943 380.045 264.697 379.648H264.413V391.182H261.06ZM264.356 372.091C264.356 373.739 264.597 375.192 265.08 376.452C265.563 377.702 266.269 378.682 267.197 379.392C268.125 380.093 269.261 380.443 270.606 380.443C272.007 380.443 273.177 380.074 274.114 379.335C275.061 378.587 275.772 377.583 276.245 376.324C276.728 375.055 276.969 373.644 276.969 372.091C276.969 370.557 276.733 369.174 276.259 367.943C275.795 366.703 275.09 365.723 274.143 365.003C273.205 364.274 272.026 363.909 270.606 363.909C269.242 363.909 268.096 364.255 267.168 364.946C266.24 365.628 265.54 366.584 265.066 367.815C264.593 369.037 264.356 370.462 264.356 372.091ZM285.435 391.182V361.182H288.674V364.648H289.072C289.318 364.269 289.659 363.786 290.094 363.199C290.54 362.602 291.174 362.072 291.998 361.608C292.831 361.134 293.958 360.898 295.379 360.898C297.216 360.898 298.835 361.357 300.237 362.276C301.638 363.194 302.732 364.496 303.518 366.182C304.304 367.867 304.697 369.856 304.697 372.148C304.697 374.458 304.304 376.461 303.518 378.156C302.732 379.842 301.643 381.149 300.251 382.077C298.859 382.995 297.254 383.455 295.435 383.455C294.034 383.455 292.912 383.223 292.069 382.759C291.226 382.285 290.577 381.75 290.123 381.153C289.668 380.547 289.318 380.045 289.072 379.648H288.788V391.182H285.435ZM288.731 372.091C288.731 373.739 288.972 375.192 289.455 376.452C289.938 377.702 290.644 378.682 291.572 379.392C292.5 380.093 293.636 380.443 294.981 380.443C296.382 380.443 297.552 380.074 298.489 379.335C299.436 378.587 300.147 377.583 300.62 376.324C301.103 375.055 301.344 373.644 301.344 372.091C301.344 370.557 301.108 369.174 300.634 367.943C300.17 366.703 299.465 365.723 298.518 365.003C297.58 364.274 296.401 363.909 294.981 363.909C293.617 363.909 292.471 364.255 291.543 364.946C290.615 365.628 289.915 366.584 289.441 367.815C288.968 369.037 288.731 370.462 288.731 372.091Z" fill="white"/>
</svg>
