<svg width="768" height="1024" viewBox="0 0 768 1024" fill="none" xmlns="http://www.w3.org/2000/svg">
<rect width="768" height="1024" fill="black"/>
<path d="M248.2 474.14C248.2 472.66 248.7 471.52 249.7 470.72C250.7 469.88 252.08 469.46 253.84 469.46L268.36 504.32L267.22 507.14L267.64 507.32L283 469.46C284.76 469.46 286.14 469.88 287.14 470.72C288.18 471.56 288.7 472.72 288.7 474.2V512.54C284.98 512.54 283.12 511 283.12 507.92V482.66L284.68 478.52L284.2 478.4L270.82 510.92C270.62 511.4 270.3 511.78 269.86 512.06C269.42 512.38 268.96 512.54 268.48 512.54C267.96 512.54 267.48 512.4 267.04 512.12C266.6 511.84 266.28 511.44 266.08 510.92L252.7 478.34L252.22 478.52L253.78 482.6V507.92C253.78 509.44 253.3 510.6 252.34 511.4C251.42 512.16 250.04 512.54 248.2 512.54V474.14ZM308.526 512.54C306.086 512.54 303.866 512.08 301.866 511.16C299.906 510.24 298.366 509 297.246 507.44C296.166 505.84 295.626 504.06 295.626 502.1V492.26C295.626 490.26 296.166 488.44 297.246 486.8C298.366 485.16 299.906 483.86 301.866 482.9C303.826 481.94 306.046 481.46 308.526 481.46C311.006 481.46 313.226 481.94 315.186 482.9C317.186 483.86 318.726 485.16 319.806 486.8C320.926 488.44 321.486 490.26 321.486 492.26V502.1C321.486 504.06 320.926 505.84 319.806 507.44C318.686 509 317.146 510.24 315.186 511.16C313.226 512.08 311.006 512.54 308.526 512.54ZM308.526 508.04C310.926 508.04 312.826 507.48 314.226 506.36C315.666 505.2 316.386 503.7 316.386 501.86V492.44C316.386 490.52 315.666 488.96 314.226 487.76C312.826 486.56 310.926 485.96 308.526 485.96C306.166 485.96 304.266 486.56 302.826 487.76C301.386 488.96 300.666 490.52 300.666 492.44V501.86C300.666 503.7 301.366 505.2 302.766 506.36C304.206 507.48 306.126 508.04 308.526 508.04ZM337.149 512.54C336.549 512.54 336.009 512.38 335.529 512.06C335.049 511.74 334.709 511.34 334.509 510.86L322.989 481.88C323.229 481.76 323.569 481.66 324.009 481.58C324.449 481.5 324.849 481.46 325.209 481.46C326.089 481.46 326.869 481.66 327.549 482.06C328.229 482.46 328.689 483.04 328.929 483.8L336.849 505.34L336.009 507.74L336.309 507.86L345.309 483.8C345.549 483.04 346.009 482.46 346.689 482.06C347.369 481.66 348.129 481.46 348.969 481.46C349.329 481.46 349.729 481.5 350.169 481.58C350.609 481.66 350.969 481.76 351.249 481.88L339.729 510.86C339.529 511.34 339.189 511.74 338.709 512.06C338.269 512.38 337.749 512.54 337.149 512.54ZM360.558 476.96C359.438 476.96 358.498 476.6 357.738 475.88C356.978 475.16 356.598 474.26 356.598 473.18C356.598 472.1 356.978 471.22 357.738 470.54C358.498 469.82 359.438 469.46 360.558 469.46C361.638 469.46 362.558 469.82 363.318 470.54C364.078 471.22 364.458 472.1 364.458 473.18C364.458 474.26 364.078 475.16 363.318 475.88C362.558 476.6 361.638 476.96 360.558 476.96ZM357.918 485.3C357.918 483.98 358.338 483.02 359.178 482.42C360.058 481.78 361.378 481.46 363.138 481.46V508.7C363.138 510.02 362.698 511 361.818 511.64C360.978 512.24 359.678 512.54 357.918 512.54V485.3ZM384.948 512.54C382.508 512.54 380.328 512.08 378.408 511.16C376.488 510.2 374.988 508.9 373.908 507.26C372.828 505.58 372.288 503.7 372.288 501.62V492.74C372.288 490.62 372.848 488.7 373.968 486.98C375.128 485.26 376.668 483.92 378.588 482.96C380.548 481.96 382.668 481.46 384.948 481.46C387.228 481.46 389.308 481.94 391.188 482.9C393.108 483.86 394.608 485.18 395.688 486.86C396.808 488.54 397.368 490.44 397.368 492.56V496.4C397.368 497.04 397.128 497.58 396.648 498.02C396.168 498.46 395.588 498.68 394.908 498.68H377.388V501.38C377.388 503.42 378.028 505.06 379.308 506.3C380.628 507.54 382.508 508.16 384.948 508.16C387.388 508.16 389.248 507.62 390.528 506.54C391.808 505.46 392.448 504 392.448 502.16C393.648 502.08 394.648 502.32 395.448 502.88C396.288 503.4 396.708 504.18 396.708 505.22C396.708 506.5 396.148 507.7 395.028 508.82C393.948 509.94 392.508 510.84 390.708 511.52C388.908 512.2 386.988 512.54 384.948 512.54ZM392.508 494.6V492.56C392.508 490.56 391.808 488.94 390.408 487.7C389.048 486.42 387.228 485.78 384.948 485.78C382.668 485.78 380.828 486.42 379.428 487.7C378.068 488.94 377.388 490.56 377.388 492.56V494.6H392.508ZM422.103 512.54C420.903 512.3 419.963 511.8 419.283 511.04C418.603 510.24 418.263 509.28 418.263 508.16C418.263 507.4 418.443 506.6 418.803 505.76L433.143 471.26C433.623 470.06 434.543 469.46 435.903 469.46C437.183 469.46 438.083 470.06 438.603 471.26L452.943 505.76C453.303 506.6 453.483 507.4 453.483 508.16C453.483 509.24 453.143 510.18 452.463 510.98C451.783 511.78 450.843 512.3 449.643 512.54L444.483 500H427.263L422.103 512.54ZM442.743 495.14L435.003 475.52L434.523 475.7L435.603 478.46L429.003 495.14H442.743ZM460.368 485.72C460.368 484.4 460.768 483.36 461.568 482.6C462.408 481.84 463.668 481.46 465.348 481.46V484.82L464.148 486.38L464.328 486.62C465.568 485.02 466.988 483.76 468.588 482.84C470.188 481.92 472.088 481.46 474.288 481.46C477.728 481.46 480.508 482.42 482.628 484.34C484.748 486.22 485.808 488.74 485.808 491.9V502.16C485.808 505.32 484.708 507.84 482.508 509.72C480.308 511.6 477.448 512.54 473.928 512.54C472.048 512.54 470.308 512.16 468.708 511.4C467.148 510.6 465.768 509.56 464.568 508.28L464.388 508.58C464.668 508.98 465.088 509.42 465.648 509.9V520.46C465.648 523.18 463.888 524.54 460.368 524.54V485.72ZM473.148 507.92C475.508 507.92 477.348 507.4 478.668 506.36C479.988 505.28 480.648 503.8 480.648 501.92V492.14C480.648 490.18 479.988 488.68 478.668 487.64C477.348 486.6 475.488 486.08 473.088 486.08C470.968 486.08 469.188 486.64 467.748 487.76C466.308 488.84 465.588 490.2 465.588 491.84V502.22C465.588 503.82 466.268 505.18 467.628 506.3C468.988 507.38 470.828 507.92 473.148 507.92ZM493.591 485.72C493.591 484.4 493.991 483.36 494.791 482.6C495.631 481.84 496.891 481.46 498.571 481.46V484.82L497.371 486.38L497.551 486.62C498.791 485.02 500.211 483.76 501.811 482.84C503.411 481.92 505.311 481.46 507.511 481.46C510.951 481.46 513.731 482.42 515.851 484.34C517.971 486.22 519.031 488.74 519.031 491.9V502.16C519.031 505.32 517.931 507.84 515.731 509.72C513.531 511.6 510.671 512.54 507.151 512.54C505.271 512.54 503.531 512.16 501.931 511.4C500.371 510.6 498.991 509.56 497.791 508.28L497.611 508.58C497.891 508.98 498.311 509.42 498.871 509.9V520.46C498.871 523.18 497.111 524.54 493.591 524.54V485.72ZM506.371 507.92C508.731 507.92 510.571 507.4 511.891 506.36C513.211 505.28 513.871 503.8 513.871 501.92V492.14C513.871 490.18 513.211 488.68 511.891 487.64C510.571 486.6 508.711 486.08 506.311 486.08C504.191 486.08 502.411 486.64 500.971 487.76C499.531 488.84 498.811 490.2 498.811 491.84V502.22C498.811 503.82 499.491 505.18 500.851 506.3C502.211 507.38 504.051 507.92 506.371 507.92Z" fill="white"/>
</svg>
