<svg width="414" height="736" viewBox="0 0 414 736" fill="none" xmlns="http://www.w3.org/2000/svg">
<rect width="414" height="736" fill="#310569"/>
<path d="M48.9318 321.034V317.909H70.75V321.034H61.6023V347H58.0795V321.034H48.9318ZM75.7322 347V325.182H79.0845V347H75.7322ZM77.4368 321.545C76.7834 321.545 76.2199 321.323 75.7464 320.878C75.2824 320.433 75.0504 319.898 75.0504 319.273C75.0504 318.648 75.2824 318.113 75.7464 317.668C76.2199 317.223 76.7834 317 77.4368 317C78.0902 317 78.6489 317.223 79.1129 317.668C79.5864 318.113 79.8232 318.648 79.8232 319.273C79.8232 319.898 79.5864 320.433 79.1129 320.878C78.6489 321.323 78.0902 321.545 77.4368 321.545ZM85.2244 347V325.182H88.4631V328.591H88.7472C89.2017 327.426 89.9356 326.522 90.9489 325.878C91.9621 325.224 93.179 324.898 94.5994 324.898C96.0388 324.898 97.2367 325.224 98.1932 325.878C99.1591 326.522 99.9119 327.426 100.452 328.591H100.679C101.238 327.464 102.076 326.569 103.193 325.906C104.311 325.234 105.651 324.898 107.213 324.898C109.164 324.898 110.759 325.509 112 326.73C113.241 327.942 113.861 329.831 113.861 332.398V347H110.509V332.398C110.509 330.788 110.068 329.637 109.188 328.946C108.307 328.255 107.27 327.909 106.077 327.909C104.543 327.909 103.354 328.373 102.511 329.301C101.669 330.22 101.247 331.384 101.247 332.795V347H97.8381V332.057C97.8381 330.816 97.4356 329.817 96.6307 329.06C95.8258 328.293 94.7888 327.909 93.5199 327.909C92.6487 327.909 91.8343 328.141 91.0767 328.605C90.3286 329.069 89.7225 329.713 89.2585 330.537C88.804 331.351 88.5767 332.294 88.5767 333.364V347H85.2244ZM129.138 347.455C127.036 347.455 125.222 346.991 123.697 346.062C122.182 345.125 121.013 343.818 120.189 342.142C119.375 340.456 118.967 338.496 118.967 336.261C118.967 334.027 119.375 332.057 120.189 330.352C121.013 328.638 122.159 327.303 123.626 326.347C125.104 325.381 126.827 324.898 128.797 324.898C129.933 324.898 131.055 325.087 132.163 325.466C133.271 325.845 134.28 326.46 135.189 327.312C136.098 328.155 136.822 329.273 137.362 330.665C137.902 332.057 138.172 333.771 138.172 335.807V337.227H121.354V334.33H134.763C134.763 333.098 134.517 332 134.024 331.034C133.541 330.068 132.85 329.306 131.95 328.747C131.06 328.188 130.009 327.909 128.797 327.909C127.462 327.909 126.306 328.241 125.331 328.903C124.365 329.557 123.622 330.409 123.101 331.46C122.58 332.511 122.32 333.638 122.32 334.841V336.773C122.32 338.42 122.604 339.817 123.172 340.963C123.75 342.099 124.55 342.966 125.572 343.562C126.595 344.15 127.784 344.443 129.138 344.443C130.018 344.443 130.814 344.32 131.524 344.074C132.244 343.818 132.864 343.439 133.385 342.938C133.906 342.426 134.308 341.792 134.592 341.034L137.831 341.943C137.49 343.042 136.917 344.008 136.112 344.841C135.307 345.665 134.313 346.309 133.129 346.773C131.946 347.227 130.615 347.455 129.138 347.455ZM158.726 330.068L155.714 330.92C155.525 330.419 155.246 329.931 154.876 329.457C154.517 328.974 154.024 328.577 153.399 328.264C152.774 327.952 151.974 327.795 150.999 327.795C149.663 327.795 148.551 328.103 147.661 328.719C146.78 329.325 146.339 330.097 146.339 331.034C146.339 331.867 146.643 332.526 147.249 333.009C147.855 333.491 148.802 333.894 150.089 334.216L153.328 335.011C155.279 335.485 156.732 336.209 157.689 337.185C158.645 338.151 159.124 339.396 159.124 340.92C159.124 342.17 158.764 343.288 158.044 344.273C157.334 345.258 156.339 346.034 155.061 346.602C153.783 347.17 152.296 347.455 150.601 347.455C148.375 347.455 146.534 346.972 145.075 346.006C143.617 345.04 142.694 343.629 142.305 341.773L145.487 340.977C145.79 342.152 146.363 343.032 147.206 343.619C148.058 344.206 149.171 344.5 150.544 344.5C152.107 344.5 153.347 344.169 154.266 343.506C155.194 342.833 155.658 342.028 155.658 341.091C155.658 340.333 155.393 339.699 154.862 339.188C154.332 338.667 153.518 338.278 152.419 338.023L148.783 337.17C146.785 336.697 145.317 335.963 144.379 334.969C143.451 333.965 142.987 332.71 142.987 331.205C142.987 329.973 143.333 328.884 144.024 327.938C144.725 326.991 145.677 326.247 146.879 325.707C148.091 325.168 149.464 324.898 150.999 324.898C153.158 324.898 154.853 325.371 156.084 326.318C157.324 327.265 158.205 328.515 158.726 330.068ZM198.942 317.909V347H195.533L179.681 324.159H179.397V347H175.874V317.909H179.283L195.192 340.807H195.477V317.909H198.942ZM214.685 347.455C212.582 347.455 210.769 346.991 209.244 346.062C207.729 345.125 206.56 343.818 205.736 342.142C204.921 340.456 204.514 338.496 204.514 336.261C204.514 334.027 204.921 332.057 205.736 330.352C206.56 328.638 207.705 327.303 209.173 326.347C210.651 325.381 212.374 324.898 214.344 324.898C215.48 324.898 216.602 325.087 217.71 325.466C218.818 325.845 219.827 326.46 220.736 327.312C221.645 328.155 222.369 329.273 222.909 330.665C223.449 332.057 223.719 333.771 223.719 335.807V337.227H206.901V334.33H220.31C220.31 333.098 220.063 332 219.571 331.034C219.088 330.068 218.397 329.306 217.497 328.747C216.607 328.188 215.556 327.909 214.344 327.909C213.009 327.909 211.853 328.241 210.878 328.903C209.912 329.557 209.169 330.409 208.648 331.46C208.127 332.511 207.866 333.638 207.866 334.841V336.773C207.866 338.42 208.151 339.817 208.719 340.963C209.296 342.099 210.097 342.966 211.119 343.562C212.142 344.15 213.33 344.443 214.685 344.443C215.565 344.443 216.361 344.32 217.071 344.074C217.791 343.818 218.411 343.439 218.932 342.938C219.453 342.426 219.855 341.792 220.139 341.034L223.378 341.943C223.037 343.042 222.464 344.008 221.659 344.841C220.854 345.665 219.86 346.309 218.676 346.773C217.492 347.227 216.162 347.455 214.685 347.455ZM233.761 347L227.114 325.182H230.636L235.352 341.886H235.58L240.239 325.182H243.818L248.42 341.83H248.648L253.364 325.182H256.886L250.239 347H246.943L242.17 330.239H241.83L237.057 347H233.761ZM276.773 330.068L273.761 330.92C273.572 330.419 273.293 329.931 272.923 329.457C272.563 328.974 272.071 328.577 271.446 328.264C270.821 327.952 270.021 327.795 269.045 327.795C267.71 327.795 266.598 328.103 265.707 328.719C264.827 329.325 264.386 330.097 264.386 331.034C264.386 331.867 264.689 332.526 265.295 333.009C265.902 333.491 266.848 333.894 268.136 334.216L271.375 335.011C273.326 335.485 274.779 336.209 275.736 337.185C276.692 338.151 277.17 339.396 277.17 340.92C277.17 342.17 276.811 343.288 276.091 344.273C275.381 345.258 274.386 346.034 273.108 346.602C271.83 347.17 270.343 347.455 268.648 347.455C266.422 347.455 264.58 346.972 263.122 346.006C261.664 345.04 260.741 343.629 260.352 341.773L263.534 340.977C263.837 342.152 264.41 343.032 265.253 343.619C266.105 344.206 267.218 344.5 268.591 344.5C270.153 344.5 271.394 344.169 272.312 343.506C273.241 342.833 273.705 342.028 273.705 341.091C273.705 340.333 273.439 339.699 272.909 339.188C272.379 338.667 271.564 338.278 270.466 338.023L266.83 337.17C264.831 336.697 263.364 335.963 262.426 334.969C261.498 333.965 261.034 332.71 261.034 331.205C261.034 329.973 261.38 328.884 262.071 327.938C262.772 326.991 263.723 326.247 264.926 325.707C266.138 325.168 267.511 324.898 269.045 324.898C271.205 324.898 272.9 325.371 274.131 326.318C275.371 327.265 276.252 328.515 276.773 330.068ZM295.114 347H291.421L302.103 317.909H305.739L316.421 347H312.728L304.035 322.511H303.808L295.114 347ZM296.478 335.636H311.364V338.761H296.478V335.636ZM320.498 355.182V325.182H323.737V328.648H324.134C324.38 328.269 324.721 327.786 325.157 327.199C325.602 326.602 326.237 326.072 327.06 325.608C327.894 325.134 329.021 324.898 330.441 324.898C332.278 324.898 333.897 325.357 335.299 326.276C336.701 327.194 337.794 328.496 338.58 330.182C339.366 331.867 339.759 333.856 339.759 336.148C339.759 338.458 339.366 340.461 338.58 342.156C337.794 343.842 336.705 345.149 335.313 346.077C333.921 346.995 332.316 347.455 330.498 347.455C329.096 347.455 327.974 347.223 327.131 346.759C326.289 346.285 325.64 345.75 325.185 345.153C324.731 344.547 324.38 344.045 324.134 343.648H323.85V355.182H320.498ZM323.793 336.091C323.793 337.739 324.035 339.192 324.518 340.452C325.001 341.702 325.706 342.682 326.634 343.392C327.562 344.093 328.699 344.443 330.043 344.443C331.445 344.443 332.614 344.074 333.552 343.335C334.499 342.587 335.209 341.583 335.683 340.324C336.165 339.055 336.407 337.644 336.407 336.091C336.407 334.557 336.17 333.174 335.697 331.943C335.233 330.703 334.527 329.723 333.58 329.003C332.643 328.274 331.464 327.909 330.043 327.909C328.68 327.909 327.534 328.255 326.606 328.946C325.678 329.628 324.977 330.584 324.504 331.815C324.03 333.037 323.793 334.462 323.793 336.091ZM344.873 355.182V325.182H348.112V328.648H348.509C348.755 328.269 349.096 327.786 349.532 327.199C349.977 326.602 350.612 326.072 351.435 325.608C352.269 325.134 353.396 324.898 354.816 324.898C356.653 324.898 358.272 325.357 359.674 326.276C361.076 327.194 362.169 328.496 362.955 330.182C363.741 331.867 364.134 333.856 364.134 336.148C364.134 338.458 363.741 340.461 362.955 342.156C362.169 343.842 361.08 345.149 359.688 346.077C358.296 346.995 356.691 347.455 354.873 347.455C353.471 347.455 352.349 347.223 351.506 346.759C350.664 346.285 350.015 345.75 349.56 345.153C349.106 344.547 348.755 344.045 348.509 343.648H348.225V355.182H344.873ZM348.168 336.091C348.168 337.739 348.41 339.192 348.893 340.452C349.376 341.702 350.081 342.682 351.009 343.392C351.937 344.093 353.074 344.443 354.418 344.443C355.82 344.443 356.989 344.074 357.927 343.335C358.874 342.587 359.584 341.583 360.058 340.324C360.54 339.055 360.782 337.644 360.782 336.091C360.782 334.557 360.545 333.174 360.072 331.943C359.608 330.703 358.902 329.723 357.955 329.003C357.018 328.274 355.839 327.909 354.418 327.909C353.055 327.909 351.909 328.255 350.981 328.946C350.053 329.628 349.352 330.584 348.879 331.815C348.405 333.037 348.168 334.462 348.168 336.091Z" fill="white"/>
<path d="M182.594 425.07C183.427 425.279 184.221 425.435 184.977 425.539C185.732 425.643 186.396 425.721 186.969 425.773C187.646 425.852 188.271 425.878 188.844 425.852C189.573 425.852 190.484 425.786 191.578 425.656C192.698 425.526 193.844 425.409 195.016 425.305C196.188 425.174 197.307 425.096 198.375 425.07C199.469 425.018 200.354 425.083 201.031 425.266C201.708 425.422 202.398 425.669 203.102 426.008C203.831 426.32 204.495 426.724 205.094 427.219C205.693 427.688 206.188 428.247 206.578 428.898C206.969 429.523 207.19 430.24 207.242 431.047C207.216 432.062 206.982 433.013 206.539 433.898C206.174 434.654 205.562 435.435 204.703 436.242C203.844 437.023 202.607 437.622 200.992 438.039C201.799 438.143 202.49 438.326 203.062 438.586C203.661 438.82 204.169 439.107 204.586 439.445C205.029 439.758 205.38 440.109 205.641 440.5C205.927 440.891 206.148 441.281 206.305 441.672C206.695 442.583 206.878 443.599 206.852 444.719C206.695 446.177 206.396 447.336 205.953 448.195C205.536 449.055 205.055 449.719 204.508 450.188C203.961 450.656 203.401 450.982 202.828 451.164C202.255 451.346 201.734 451.49 201.266 451.594C200.797 451.698 200.224 451.75 199.547 451.75C198.87 451.75 198.141 451.737 197.359 451.711C196.604 451.659 195.823 451.62 195.016 451.594C194.208 451.542 193.44 451.542 192.711 451.594C192.112 451.646 191.383 451.698 190.523 451.75C189.794 451.802 188.883 451.867 187.789 451.945C186.695 451.997 185.419 452.062 183.961 452.141C184.247 451.932 184.482 451.698 184.664 451.438C184.872 451.151 185.042 450.904 185.172 450.695C185.302 450.435 185.419 450.188 185.523 449.953C185.602 449.745 185.667 449.172 185.719 448.234C185.771 447.297 185.81 446.177 185.836 444.875C185.862 443.547 185.875 442.128 185.875 440.617C185.901 439.081 185.888 437.609 185.836 436.203C185.81 434.771 185.758 433.508 185.68 432.414C185.628 431.294 185.549 430.487 185.445 429.992C185.289 429.445 185.081 428.885 184.82 428.312C184.612 427.818 184.312 427.284 183.922 426.711C183.557 426.138 183.115 425.591 182.594 425.07ZM190.836 429.055C190.836 429.159 190.849 429.51 190.875 430.109C190.901 430.63 190.927 431.438 190.953 432.531C191.005 433.599 191.07 435.122 191.148 437.102C191.799 437.388 192.438 437.544 193.062 437.57C193.688 437.57 194.247 437.544 194.742 437.492C195.315 437.414 195.862 437.284 196.383 437.102C197.086 436.815 197.633 436.346 198.023 435.695C198.44 435.044 198.714 434.367 198.844 433.664C199 432.935 199.039 432.258 198.961 431.633C198.883 430.982 198.714 430.513 198.453 430.227C197.958 429.784 197.346 429.419 196.617 429.133C195.992 428.898 195.198 428.742 194.234 428.664C193.297 428.56 192.164 428.69 190.836 429.055ZM190.641 447.57C191.604 448.065 192.451 448.391 193.18 448.547C193.909 448.703 194.521 448.781 195.016 448.781C195.589 448.781 196.083 448.703 196.5 448.547C196.995 448.312 197.477 448 197.945 447.609C198.44 447.193 198.805 446.711 199.039 446.164C199.299 445.591 199.404 444.966 199.352 444.289C199.299 443.586 199 442.818 198.453 441.984C197.958 441.385 197.359 440.917 196.656 440.578C196.031 440.292 195.237 440.109 194.273 440.031C193.336 439.953 192.177 440.174 190.797 440.695L190.641 447.57ZM202.867 425.266C203.987 425.37 204.977 425.448 205.836 425.5C206.695 425.552 207.411 425.604 207.984 425.656C208.661 425.708 209.234 425.747 209.703 425.773C210.172 425.799 210.745 425.812 211.422 425.812C211.995 425.839 212.711 425.852 213.57 425.852C214.43 425.852 215.445 425.852 216.617 425.852C215.862 426.216 215.276 426.555 214.859 426.867C214.469 427.18 214.169 427.453 213.961 427.688C213.701 427.974 213.544 428.234 213.492 428.469C213.466 428.677 213.518 429.029 213.648 429.523C213.779 430.018 213.961 430.578 214.195 431.203C214.43 431.802 214.716 432.44 215.055 433.117C215.393 433.794 215.745 434.406 216.109 434.953C216.5 435.474 216.891 435.904 217.281 436.242C217.672 436.581 218.049 436.737 218.414 436.711C218.779 436.685 219.221 436.516 219.742 436.203C220.263 435.865 220.797 435.448 221.344 434.953C221.917 434.458 222.477 433.924 223.023 433.352C223.57 432.779 224.052 432.219 224.469 431.672C224.911 431.125 225.263 430.63 225.523 430.188C225.81 429.719 225.953 429.38 225.953 429.172C225.927 428.911 225.823 428.612 225.641 428.273C225.484 427.987 225.224 427.648 224.859 427.258C224.495 426.841 223.987 426.372 223.336 425.852C225.471 425.93 227.034 425.969 228.023 425.969H229.469H231.109C231.708 425.969 232.503 425.969 233.492 425.969C234.482 425.943 235.719 425.904 237.203 425.852C236.188 426.529 235.302 427.141 234.547 427.688C233.818 428.208 233.193 428.651 232.672 429.016C232.073 429.458 231.578 429.849 231.188 430.188C230.745 430.552 230.133 431.125 229.352 431.906C228.674 432.583 227.776 433.495 226.656 434.641C225.536 435.76 224.13 437.219 222.438 439.016C222.203 440.917 222.047 442.453 221.969 443.625C221.917 444.797 221.891 445.721 221.891 446.398C221.891 447.18 221.943 447.766 222.047 448.156C222.177 448.469 222.398 448.833 222.711 449.25C222.971 449.615 223.336 450.044 223.805 450.539C224.299 451.034 224.951 451.581 225.758 452.18C224.898 451.971 224.091 451.815 223.336 451.711C222.607 451.607 221.956 451.529 221.383 451.477C220.706 451.398 220.094 451.359 219.547 451.359C218.974 451.359 218.297 451.385 217.516 451.438C216.839 451.49 216.031 451.555 215.094 451.633C214.156 451.711 213.062 451.828 211.812 451.984C212.464 451.542 212.997 451.099 213.414 450.656C213.831 450.214 214.156 449.81 214.391 449.445C214.677 449.029 214.885 448.638 215.016 448.273C215.12 447.857 215.198 447.258 215.25 446.477C215.302 445.799 215.302 444.901 215.25 443.781C215.224 442.661 215.146 441.242 215.016 439.523C213.453 437.023 212.177 435.057 211.188 433.625C210.198 432.167 209.43 431.06 208.883 430.305C208.232 429.445 207.763 428.872 207.477 428.586C207.216 428.378 206.865 428.117 206.422 427.805C206.057 427.518 205.589 427.18 205.016 426.789C204.417 426.372 203.701 425.865 202.867 425.266ZM93.8633 471.547C95.2695 471.599 96.6888 471.859 98.1211 472.328C99.5794 472.771 100.921 473.5 102.145 474.516C103.368 475.505 104.41 476.794 105.27 478.383C106.129 479.945 106.663 481.859 106.871 484.125C107.053 485.974 106.819 487.81 106.168 489.633C105.543 491.43 104.671 493.083 103.551 494.594C102.431 496.104 101.142 497.393 99.6836 498.461C98.2253 499.503 96.7669 500.193 95.3086 500.531C94.4232 500.74 93.4466 500.766 92.3789 500.609C91.3372 500.427 90.2695 500.102 89.1758 499.633C88.1081 499.138 87.0534 498.513 86.0117 497.758C84.9961 497.003 84.0716 496.143 83.2383 495.18C82.4049 494.19 81.7018 493.122 81.1289 491.977C80.582 490.831 80.2435 489.633 80.1133 488.383C79.9831 487.341 79.9701 486.195 80.0742 484.945C80.2044 483.669 80.4518 482.406 80.8164 481.156C81.207 479.88 81.7409 478.656 82.418 477.484C83.1211 476.286 84.0065 475.245 85.0742 474.359C86.1419 473.448 87.3919 472.745 88.8242 472.25C90.2826 471.729 91.9622 471.495 93.8633 471.547ZM86.8711 487.367C86.5065 490.154 86.7669 492.393 87.6523 494.086C88.5638 495.779 89.931 496.807 91.7539 497.172C92.6393 497.354 93.4857 497.172 94.293 496.625C95.1263 496.052 95.8815 495.232 96.5586 494.164C97.2357 493.096 97.8216 491.846 98.3164 490.414C98.8112 488.982 99.1758 487.484 99.4102 485.922C99.6445 484.359 99.6576 482.953 99.4492 481.703C99.2669 480.427 98.9414 479.346 98.4727 478.461C98.0039 477.549 97.431 476.846 96.7539 476.352C96.1029 475.857 95.4258 475.583 94.7227 475.531C93.4987 475.453 92.431 475.779 91.5195 476.508C90.6081 477.211 89.8398 478.135 89.2148 479.281C88.5898 480.427 88.082 481.716 87.6914 483.148C87.3268 484.581 87.0534 485.987 86.8711 487.367ZM108.316 473.578C108.915 473.734 109.462 473.852 109.957 473.93C110.478 473.982 110.921 474.021 111.285 474.047C111.728 474.073 112.132 474.086 112.496 474.086C112.861 474.086 113.316 474.06 113.863 474.008C114.827 473.93 116.194 473.734 117.965 473.422C117.678 473.63 117.405 473.839 117.145 474.047C116.91 474.229 116.702 474.411 116.52 474.594L115.934 475.18C115.595 475.648 115.257 476.443 114.918 477.562C114.632 478.526 114.319 479.88 113.98 481.625C113.668 483.37 113.382 485.688 113.121 488.578C114.397 487.328 115.595 486.391 116.715 485.766C117.861 485.115 118.863 484.646 119.723 484.359C120.738 484.047 121.663 483.878 122.496 483.852C123.564 483.93 124.488 484.151 125.27 484.516C126.077 484.854 126.754 485.271 127.301 485.766C127.874 486.234 128.329 486.729 128.668 487.25C129.033 487.745 129.306 488.188 129.488 488.578C129.592 488.839 129.671 489.32 129.723 490.023C129.801 490.701 129.814 491.482 129.762 492.367C129.71 493.253 129.566 494.19 129.332 495.18C129.124 496.143 128.772 497.042 128.277 497.875C127.809 498.682 127.184 499.359 126.402 499.906C125.647 500.453 124.697 500.753 123.551 500.805C122.223 500.805 120.934 500.648 119.684 500.336C118.616 500.076 117.483 499.62 116.285 498.969C115.113 498.292 114.111 497.328 113.277 496.078C113.277 496.391 113.277 496.703 113.277 497.016C113.277 497.302 113.29 497.549 113.316 497.758C113.342 498.044 113.368 498.292 113.395 498.5C113.421 498.734 113.486 498.982 113.59 499.242C113.668 499.451 113.785 499.711 113.941 500.023C114.124 500.31 114.358 500.596 114.645 500.883C114.358 500.857 114.072 500.844 113.785 500.844C113.499 500.818 113.212 500.818 112.926 500.844C112.613 500.87 112.301 500.896 111.988 500.922C111.676 500.948 111.35 500.987 111.012 501.039C110.725 501.091 110.387 501.156 109.996 501.234C109.605 501.312 109.202 501.404 108.785 501.508C108.863 501.273 108.928 500.935 108.98 500.492C109.033 500.023 109.085 499.516 109.137 498.969C109.215 498.396 109.267 497.797 109.293 497.172C109.345 496.547 109.397 495.922 109.449 495.297C109.553 493.865 109.645 492.302 109.723 490.609C109.801 487.979 109.814 485.531 109.762 483.266C109.736 482.302 109.684 481.326 109.605 480.336C109.553 479.346 109.475 478.422 109.371 477.562C109.267 476.677 109.124 475.896 108.941 475.219C108.785 474.516 108.577 473.969 108.316 473.578ZM113.395 492.602C113.811 493.357 114.254 494.008 114.723 494.555C115.191 495.076 115.66 495.518 116.129 495.883C116.598 496.247 117.053 496.534 117.496 496.742C117.965 496.951 118.408 497.107 118.824 497.211C119.788 497.471 120.738 497.497 121.676 497.289C122.613 497.029 123.342 496.508 123.863 495.727C124.384 494.945 124.788 494.06 125.074 493.07C125.204 492.602 125.283 492.003 125.309 491.273C125.361 490.544 125.283 489.841 125.074 489.164C124.892 488.461 124.553 487.849 124.059 487.328C123.564 486.781 122.848 486.456 121.91 486.352C121.259 486.352 120.504 486.534 119.645 486.898C118.889 487.211 117.991 487.732 116.949 488.461C115.908 489.164 114.723 490.219 113.395 491.625V492.602ZM131.598 483.539L138.785 483.617C138.368 485.206 138.056 486.56 137.848 487.68C137.665 488.799 137.548 489.737 137.496 490.492C137.392 491.352 137.366 492.081 137.418 492.68C137.496 493.227 137.626 493.812 137.809 494.438C137.965 494.958 138.199 495.557 138.512 496.234C138.824 496.911 139.241 497.589 139.762 498.266C139.449 498.161 139.111 498.083 138.746 498.031C138.382 497.979 138.043 497.94 137.73 497.914C137.366 497.888 137.001 497.888 136.637 497.914C136.272 497.94 135.868 497.979 135.426 498.031C135.061 498.083 134.618 498.148 134.098 498.227C133.577 498.305 133.03 498.409 132.457 498.539C132.848 497.367 133.147 496.352 133.355 495.492C133.59 494.633 133.759 493.917 133.863 493.344C133.967 492.667 134.033 492.12 134.059 491.703C134.059 491.182 134.059 490.596 134.059 489.945C134.059 489.268 134.059 488.617 134.059 487.992C134.059 487.367 134.046 486.82 134.02 486.352C133.993 485.857 133.941 485.544 133.863 485.414L133.473 485.023C133.316 484.893 133.082 484.711 132.77 484.477C132.483 484.216 132.092 483.904 131.598 483.539ZM134.371 477.523C134.918 477.237 135.465 477.159 136.012 477.289C136.585 477.419 137.027 477.667 137.34 478.031C137.652 478.396 137.757 478.826 137.652 479.32C137.574 479.815 137.158 480.297 136.402 480.766C135.647 481.208 134.983 481.365 134.41 481.234C133.837 481.104 133.434 480.831 133.199 480.414C132.965 479.997 132.926 479.516 133.082 478.969C133.238 478.396 133.668 477.914 134.371 477.523ZM151.637 483.5C152.314 483.5 153.017 483.63 153.746 483.891C154.475 484.125 155.178 484.438 155.855 484.828C156.533 485.193 157.145 485.596 157.691 486.039C158.264 486.456 158.733 486.859 159.098 487.25C159.749 487.953 160.191 488.904 160.426 490.102C160.686 491.273 160.738 492.484 160.582 493.734C160.426 494.958 160.061 496.117 159.488 497.211C158.915 498.305 158.121 499.112 157.105 499.633C156.376 499.997 155.66 500.284 154.957 500.492C154.254 500.701 153.577 500.857 152.926 500.961C152.275 501.065 151.663 501.117 151.09 501.117C150.517 501.117 150.022 501.104 149.605 501.078C148.824 501.026 148.004 500.753 147.145 500.258C146.311 499.763 145.517 499.151 144.762 498.422C144.033 497.693 143.408 496.898 142.887 496.039C142.366 495.154 142.053 494.32 141.949 493.539C141.793 492.471 141.767 491.352 141.871 490.18C141.975 489.008 142.353 487.927 143.004 486.938C143.681 485.948 144.697 485.128 146.051 484.477C147.431 483.826 149.293 483.5 151.637 483.5ZM150.348 498.656C150.634 498.708 151.025 498.643 151.52 498.461C152.014 498.253 152.496 497.927 152.965 497.484C153.46 497.042 153.889 496.482 154.254 495.805C154.645 495.102 154.879 494.255 154.957 493.266C155.035 492.302 155.035 491.417 154.957 490.609C154.905 489.802 154.788 489.099 154.605 488.5C154.423 487.875 154.215 487.367 153.98 486.977C153.746 486.586 153.499 486.312 153.238 486.156C152.796 485.922 152.262 485.74 151.637 485.609C151.012 485.453 150.478 485.479 150.035 485.688C149.827 485.792 149.566 486.013 149.254 486.352C148.941 486.69 148.629 487.12 148.316 487.641C148.004 488.135 147.717 488.708 147.457 489.359C147.223 490.01 147.053 490.688 146.949 491.391C146.845 492.094 146.819 492.849 146.871 493.656C146.949 494.464 147.118 495.232 147.379 495.961C147.639 496.664 148.004 497.276 148.473 497.797C148.967 498.292 149.592 498.578 150.348 498.656ZM162.066 482.289C162.561 482.315 163.004 482.328 163.395 482.328C163.811 482.302 164.163 482.276 164.449 482.25C164.788 482.224 165.087 482.198 165.348 482.172C165.738 482.12 166.142 482.055 166.559 481.977C166.923 481.924 167.301 481.859 167.691 481.781C168.108 481.677 168.512 481.56 168.902 481.43C168.746 481.82 168.616 482.159 168.512 482.445C168.408 482.732 168.329 482.979 168.277 483.188C168.199 483.422 168.16 483.617 168.16 483.773C168.134 483.956 168.121 484.177 168.121 484.438C168.095 484.88 168.095 485.596 168.121 486.586C169.475 485.414 170.608 484.503 171.52 483.852C172.457 483.201 173.199 482.693 173.746 482.328C174.397 481.911 174.905 481.638 175.27 481.508C176.233 481.352 177.079 481.573 177.809 482.172C178.121 482.432 178.421 482.784 178.707 483.227C178.993 483.643 179.241 484.203 179.449 484.906C179.658 485.609 179.814 486.456 179.918 487.445C180.022 488.409 180.035 489.568 179.957 490.922C179.41 490.974 178.915 491.026 178.473 491.078C178.056 491.13 177.704 491.169 177.418 491.195C177.079 491.247 176.767 491.273 176.48 491.273L175.426 491.391C175.061 491.443 174.605 491.495 174.059 491.547C173.538 491.573 172.9 491.625 172.145 491.703C173.238 490.818 173.941 490.049 174.254 489.398C174.592 488.721 174.736 488.161 174.684 487.719C174.632 487.224 174.397 486.794 173.98 486.43C173.486 486.143 172.952 486.039 172.379 486.117C171.884 486.169 171.311 486.391 170.66 486.781C170.009 487.172 169.319 487.901 168.59 488.969C168.642 490.635 168.694 492.016 168.746 493.109C168.824 494.203 168.889 495.089 168.941 495.766C169.02 496.547 169.085 497.159 169.137 497.602C169.215 497.992 169.371 498.409 169.605 498.852C169.788 499.216 170.048 499.62 170.387 500.062C170.725 500.505 171.168 500.948 171.715 501.391C170.569 501.339 169.632 501.339 168.902 501.391C168.46 501.417 168.069 501.443 167.73 501.469C167.366 501.521 166.975 501.573 166.559 501.625C166.194 501.677 165.764 501.729 165.27 501.781C164.801 501.859 164.28 501.938 163.707 502.016C163.915 501.729 164.085 501.391 164.215 501C164.345 500.635 164.449 500.284 164.527 499.945C164.632 499.555 164.71 499.151 164.762 498.734C164.788 498.37 164.801 497.823 164.801 497.094C164.827 496.365 164.814 495.544 164.762 494.633C164.736 493.695 164.697 492.732 164.645 491.742C164.592 490.727 164.527 489.776 164.449 488.891C164.371 488.005 164.28 487.237 164.176 486.586C164.098 485.909 164.007 485.44 163.902 485.18C163.772 484.867 163.616 484.555 163.434 484.242C163.277 483.956 163.082 483.656 162.848 483.344C162.613 483.005 162.353 482.654 162.066 482.289ZM184.527 485.18C184.658 485.023 184.736 484.737 184.762 484.32C184.814 483.878 184.918 483.383 185.074 482.836C185.257 482.289 185.556 481.716 185.973 481.117C186.389 480.518 187.066 479.958 188.004 479.438C188.915 478.917 189.801 478.604 190.66 478.5C191.52 478.396 192.34 478.435 193.121 478.617C193.902 478.799 194.632 479.086 195.309 479.477C196.012 479.867 196.65 480.297 197.223 480.766C197.613 481.078 197.926 481.534 198.16 482.133C198.395 482.706 198.577 483.357 198.707 484.086C198.837 484.815 198.928 485.583 198.98 486.391C199.059 487.172 199.111 487.94 199.137 488.695C199.163 489.424 199.176 490.102 199.176 490.727C199.202 491.326 199.254 491.82 199.332 492.211C199.436 492.784 199.618 493.279 199.879 493.695C200.139 494.086 200.426 494.424 200.738 494.711C201.051 494.971 201.363 495.18 201.676 495.336C201.988 495.492 202.262 495.609 202.496 495.688C202.652 495.766 202.796 495.818 202.926 495.844C203.186 495.948 203.368 495.948 203.473 495.844C203.316 496.208 203.173 496.521 203.043 496.781C202.913 497.042 202.809 497.263 202.73 497.445C202.626 497.654 202.535 497.823 202.457 497.953C202.379 498.109 202.288 498.253 202.184 498.383C202.105 498.513 202.001 498.656 201.871 498.812C201.741 498.969 201.611 499.138 201.48 499.32C201.142 499.19 200.816 499.034 200.504 498.852C200.217 498.669 199.957 498.5 199.723 498.344C199.436 498.161 199.176 497.979 198.941 497.797C198.707 497.615 198.486 497.406 198.277 497.172C198.095 496.964 197.9 496.742 197.691 496.508C197.509 496.273 197.353 496.013 197.223 495.727C197.066 496.065 196.689 496.547 196.09 497.172C195.517 497.797 194.762 498.37 193.824 498.891C192.887 499.385 191.793 499.737 190.543 499.945C189.319 500.154 187.965 500.01 186.48 499.516C185.829 499.307 185.217 499.008 184.645 498.617C184.072 498.201 183.577 497.706 183.16 497.133C182.77 496.56 182.483 495.909 182.301 495.18C182.145 494.424 182.158 493.591 182.34 492.68C182.522 491.768 182.848 491 183.316 490.375C183.785 489.75 184.345 489.242 184.996 488.852C185.647 488.461 186.376 488.161 187.184 487.953C187.991 487.745 188.824 487.602 189.684 487.523C190.361 487.497 191.038 487.536 191.715 487.641C192.288 487.745 192.887 487.94 193.512 488.227C194.137 488.487 194.671 488.891 195.113 489.438C195.087 488.057 195.035 486.964 194.957 486.156C194.905 485.323 194.853 484.685 194.801 484.242C194.697 483.721 194.605 483.357 194.527 483.148C194.397 482.966 194.254 482.758 194.098 482.523C193.967 482.289 193.798 482.081 193.59 481.898C193.382 481.69 193.121 481.521 192.809 481.391C192.496 481.26 192.132 481.208 191.715 481.234C191.272 481.26 190.921 481.378 190.66 481.586C190.4 481.794 190.191 482.042 190.035 482.328C189.905 482.589 189.827 482.875 189.801 483.188C189.775 483.5 189.788 483.773 189.84 484.008C189.892 484.164 189.97 484.333 190.074 484.516C190.178 484.672 190.322 484.841 190.504 485.023C190.686 485.206 190.934 485.362 191.246 485.492C190.647 485.57 190.113 485.635 189.645 485.688C189.176 485.714 188.772 485.753 188.434 485.805C188.043 485.857 187.704 485.896 187.418 485.922C187.132 485.948 186.793 486 186.402 486.078C186.064 486.13 185.647 486.195 185.152 486.273C184.658 486.352 184.085 486.456 183.434 486.586C183.59 486.404 183.733 486.234 183.863 486.078C183.993 485.896 184.111 485.74 184.215 485.609C184.319 485.453 184.423 485.31 184.527 485.18ZM190.387 489.828C189.918 489.854 189.449 489.971 188.98 490.18C188.512 490.362 188.095 490.635 187.73 491C187.366 491.339 187.053 491.742 186.793 492.211C186.559 492.654 186.441 493.148 186.441 493.695C186.441 494.242 186.572 494.724 186.832 495.141C187.118 495.531 187.483 495.857 187.926 496.117C188.395 496.378 188.889 496.534 189.41 496.586C189.957 496.638 190.491 496.586 191.012 496.43C191.507 496.247 191.975 495.961 192.418 495.57C192.861 495.154 193.238 494.711 193.551 494.242C193.863 493.747 194.085 493.266 194.215 492.797C194.345 492.302 194.358 491.898 194.254 491.586C194.046 490.909 193.577 490.44 192.848 490.18C192.118 489.893 191.298 489.776 190.387 489.828ZM215.113 473.305C216.285 473.513 217.249 473.656 218.004 473.734C218.759 473.812 219.371 473.878 219.84 473.93C220.387 473.982 220.816 473.995 221.129 473.969H222.301C222.717 473.969 223.238 473.969 223.863 473.969C224.514 473.943 225.322 473.93 226.285 473.93C226.832 475.206 227.327 476.378 227.77 477.445C228.238 478.513 228.629 479.424 228.941 480.18C229.306 481.091 229.645 481.911 229.957 482.641C230.322 483.552 230.712 484.555 231.129 485.648C231.546 486.742 231.923 487.771 232.262 488.734C232.626 489.698 232.926 490.492 233.16 491.117C233.395 491.742 233.512 492.029 233.512 491.977C233.512 491.951 233.525 491.69 233.551 491.195C233.577 490.674 233.603 490.036 233.629 489.281C233.655 488.5 233.681 487.654 233.707 486.742C233.759 485.805 233.785 484.906 233.785 484.047C233.811 483.161 233.824 482.354 233.824 481.625C233.824 480.896 233.798 480.349 233.746 479.984C233.668 479.542 233.512 479.034 233.277 478.461C233.069 477.966 232.783 477.38 232.418 476.703C232.053 476 231.546 475.206 230.895 474.32C231.962 474.346 232.835 474.359 233.512 474.359C234.189 474.359 234.736 474.359 235.152 474.359C235.621 474.359 235.986 474.346 236.246 474.32C236.585 474.32 237.001 474.294 237.496 474.242C237.939 474.19 238.486 474.151 239.137 474.125C239.814 474.073 240.647 474.008 241.637 473.93C241.064 474.451 240.608 474.945 240.27 475.414C239.931 475.883 239.658 476.299 239.449 476.664C239.215 477.081 239.059 477.471 238.98 477.836C238.876 478.305 238.785 479.073 238.707 480.141C238.655 481.182 238.59 482.354 238.512 483.656C238.46 484.958 238.408 486.312 238.355 487.719C238.303 489.125 238.251 490.414 238.199 491.586C238.199 492.471 238.173 493.422 238.121 494.438C238.069 495.297 238.017 496.273 237.965 497.367C237.913 498.435 237.848 499.516 237.77 500.609L234.293 500.688C233.277 498.891 232.418 497.354 231.715 496.078C231.038 494.776 230.478 493.708 230.035 492.875C229.54 491.911 229.124 491.104 228.785 490.453C228.499 489.828 228.121 489.112 227.652 488.305C227.262 487.628 226.767 486.794 226.168 485.805C225.595 484.815 224.905 483.682 224.098 482.406C224.02 484.203 223.98 485.74 223.98 487.016C224.007 488.266 224.046 489.307 224.098 490.141C224.176 491.104 224.267 491.911 224.371 492.562C224.501 493.188 224.684 493.891 224.918 494.672C225.126 495.349 225.374 496.143 225.66 497.055C225.973 497.966 226.35 498.995 226.793 500.141C225.257 500.062 224.111 500.023 223.355 500.023H222.184C221.819 500.023 221.324 500.062 220.699 500.141C220.178 500.193 219.462 500.271 218.551 500.375C217.665 500.479 216.559 500.622 215.23 500.805C215.855 500.049 216.35 499.359 216.715 498.734C217.105 498.083 217.405 497.536 217.613 497.094C217.874 496.573 218.056 496.117 218.16 495.727C218.238 495.31 218.29 494.594 218.316 493.578C218.342 492.536 218.342 491.365 218.316 490.062C218.316 488.734 218.29 487.341 218.238 485.883C218.212 484.424 218.173 483.07 218.121 481.82C218.069 480.57 218.004 479.503 217.926 478.617C217.874 477.732 217.835 477.185 217.809 476.977C217.73 476.638 217.574 476.273 217.34 475.883C217.132 475.544 216.858 475.167 216.52 474.75C216.181 474.307 215.712 473.826 215.113 473.305ZM239.254 482.992C240.035 483.044 240.725 483.083 241.324 483.109C241.949 483.135 242.47 483.161 242.887 483.188C243.355 483.214 243.772 483.227 244.137 483.227C244.501 483.227 244.918 483.214 245.387 483.188C245.803 483.161 246.311 483.122 246.91 483.07C247.535 482.992 248.251 482.888 249.059 482.758C248.434 483.148 247.926 483.513 247.535 483.852C247.171 484.164 246.884 484.451 246.676 484.711C246.441 484.997 246.285 485.258 246.207 485.492C246.155 485.701 246.103 486.117 246.051 486.742C246.025 487.341 245.999 488.044 245.973 488.852C245.973 489.633 245.986 490.466 246.012 491.352C246.038 492.237 246.077 493.044 246.129 493.773C246.181 494.477 246.259 495.076 246.363 495.57C246.467 496.039 246.598 496.26 246.754 496.234C246.962 496.052 247.301 495.44 247.77 494.398C247.952 493.956 248.173 493.396 248.434 492.719C248.694 492.016 248.993 491.169 249.332 490.18C249.671 489.164 250.048 487.979 250.465 486.625C250.908 485.271 251.402 483.695 251.949 481.898H255.348C255.452 483.669 255.569 485.219 255.699 486.547C255.829 487.875 255.96 489.034 256.09 490.023C256.22 490.987 256.337 491.807 256.441 492.484C256.572 493.135 256.702 493.669 256.832 494.086C257.118 495.076 257.405 495.609 257.691 495.688C257.926 495.635 258.173 495.336 258.434 494.789C258.72 494.242 258.98 493.565 259.215 492.758C259.475 491.951 259.71 491.078 259.918 490.141C260.126 489.177 260.309 488.279 260.465 487.445C260.621 486.612 260.725 485.883 260.777 485.258C260.829 484.633 260.829 484.242 260.777 484.086C260.699 483.93 260.543 483.708 260.309 483.422C260.1 483.188 259.814 482.901 259.449 482.562C259.111 482.224 258.642 481.82 258.043 481.352C258.772 481.482 259.462 481.573 260.113 481.625C260.79 481.651 261.389 481.677 261.91 481.703C262.509 481.729 263.056 481.729 263.551 481.703C264.072 481.703 264.71 481.69 265.465 481.664C266.116 481.638 266.923 481.625 267.887 481.625C268.876 481.625 270.035 481.599 271.363 481.547C270.191 481.911 269.254 482.263 268.551 482.602C267.874 482.914 267.353 483.214 266.988 483.5C266.546 483.812 266.233 484.112 266.051 484.398C265.868 484.789 265.582 485.609 265.191 486.859C265.035 487.38 264.84 488.031 264.605 488.812C264.371 489.568 264.098 490.466 263.785 491.508C263.473 492.549 263.121 493.76 262.73 495.141C262.34 496.495 261.897 498.044 261.402 499.789C261.116 499.737 260.816 499.711 260.504 499.711C260.217 499.685 259.944 499.672 259.684 499.672H258.785C258.473 499.698 258.134 499.724 257.77 499.75C257.457 499.776 257.092 499.815 256.676 499.867C256.259 499.919 255.803 499.984 255.309 500.062L252.965 490.57L249.137 500.062L244.762 499.945C244.215 497.003 243.772 494.659 243.434 492.914C243.121 491.143 242.861 489.789 242.652 488.852C242.418 487.758 242.262 486.99 242.184 486.547C242.053 486.078 241.858 485.622 241.598 485.18C241.389 484.815 241.09 484.438 240.699 484.047C240.309 483.63 239.827 483.279 239.254 482.992ZM267.535 483.031C268.212 483.161 268.798 483.266 269.293 483.344C269.814 483.396 270.257 483.448 270.621 483.5C271.038 483.552 271.402 483.591 271.715 483.617C272.027 483.643 272.392 483.669 272.809 483.695C273.512 483.721 274.501 483.721 275.777 483.695C275.022 483.643 274.423 483.839 273.98 484.281C273.564 484.698 273.251 485.18 273.043 485.727C272.783 486.378 272.639 487.133 272.613 487.992C272.561 489.138 272.587 490.18 272.691 491.117C272.822 492.029 273.043 492.81 273.355 493.461C273.694 494.086 274.137 494.555 274.684 494.867C275.23 495.154 275.934 495.232 276.793 495.102C277.652 494.971 278.303 494.672 278.746 494.203C279.215 493.708 279.553 493.109 279.762 492.406C279.97 491.677 280.087 490.857 280.113 489.945C280.165 489.034 280.204 488.083 280.23 487.094C280.23 486.104 280.217 485.401 280.191 484.984C280.191 484.542 280.178 484.255 280.152 484.125C280.126 483.995 280.087 483.943 280.035 483.969C279.983 483.969 279.918 483.904 279.84 483.773C279.788 483.669 279.71 483.565 279.605 483.461C279.527 483.357 279.423 483.24 279.293 483.109C279.163 482.953 279.02 482.797 278.863 482.641C279.54 482.667 280.139 482.693 280.66 482.719C281.207 482.719 281.663 482.732 282.027 482.758C282.444 482.784 282.809 482.81 283.121 482.836C283.408 482.862 283.785 482.901 284.254 482.953C284.645 483.005 285.152 483.057 285.777 483.109C286.402 483.161 287.145 483.24 288.004 483.344C287.405 483.474 286.923 483.669 286.559 483.93C286.194 484.19 285.908 484.451 285.699 484.711C285.465 484.997 285.296 485.31 285.191 485.648C285.113 486.091 285.113 486.768 285.191 487.68C285.243 488.487 285.374 489.594 285.582 491C285.79 492.406 286.116 494.255 286.559 496.547L283.473 498.383L282.848 493.188C282.092 494.464 281.285 495.453 280.426 496.156C279.592 496.833 278.811 497.328 278.082 497.641C277.223 498.005 276.389 498.214 275.582 498.266C274.514 498.266 273.59 498.201 272.809 498.07C272.053 497.914 271.402 497.719 270.855 497.484C270.309 497.25 269.866 496.99 269.527 496.703C269.215 496.391 268.98 496.078 268.824 495.766C268.46 495.115 268.264 494.281 268.238 493.266C268.212 492.224 268.251 491.195 268.355 490.18C268.46 489.138 268.577 488.188 268.707 487.328C268.837 486.469 268.876 485.883 268.824 485.57C268.772 485.336 268.694 485.076 268.59 484.789C268.486 484.555 268.355 484.294 268.199 484.008C268.043 483.695 267.822 483.37 267.535 483.031ZM307.77 471.078C308.264 471.104 308.798 471.117 309.371 471.117C309.866 471.117 310.426 471.13 311.051 471.156C311.702 471.156 312.379 471.13 313.082 471.078C312.457 471.365 311.91 471.781 311.441 472.328C310.973 472.875 310.595 473.422 310.309 473.969C309.944 474.62 309.645 475.297 309.41 476C309.28 476.417 309.176 477.159 309.098 478.227C309.02 479.268 308.954 480.492 308.902 481.898C308.876 483.305 308.863 484.789 308.863 486.352C308.863 487.914 308.876 489.411 308.902 490.844C308.928 492.25 308.967 493.5 309.02 494.594C309.072 495.688 309.137 496.456 309.215 496.898C309.319 497.419 309.449 497.914 309.605 498.383C309.736 498.799 309.905 499.229 310.113 499.672C310.322 500.089 310.582 500.427 310.895 500.688L306.91 502.484C306.702 502.198 306.533 501.898 306.402 501.586C306.272 501.299 306.168 501.039 306.09 500.805C305.986 500.518 305.921 500.258 305.895 500.023C305.842 499.711 305.79 499.372 305.738 499.008C305.686 498.617 305.621 498.253 305.543 497.914C305.491 497.549 305.452 497.25 305.426 497.016C305.4 496.781 305.4 496.638 305.426 496.586C305.452 496.534 305.296 496.768 304.957 497.289C304.618 497.784 304.111 498.37 303.434 499.047C302.783 499.698 301.975 500.336 301.012 500.961C300.048 501.56 298.967 501.938 297.77 502.094C296.546 502.25 295.413 502.016 294.371 501.391C293.355 500.766 292.483 499.893 291.754 498.773C291.025 497.628 290.465 496.312 290.074 494.828C289.71 493.318 289.566 491.781 289.645 490.219C289.697 489.177 289.931 488.253 290.348 487.445C290.764 486.612 291.285 485.896 291.91 485.297C292.561 484.672 293.264 484.151 294.02 483.734C294.801 483.292 295.556 482.927 296.285 482.641C297.04 482.354 297.743 482.146 298.395 482.016C299.046 481.885 299.566 481.794 299.957 481.742C300.426 481.716 300.96 481.794 301.559 481.977C302.079 482.133 302.678 482.393 303.355 482.758C304.059 483.122 304.84 483.669 305.699 484.398C305.543 481.794 305.4 479.711 305.27 478.148C305.139 476.56 305.009 475.349 304.879 474.516C304.749 473.526 304.632 472.849 304.527 472.484C304.397 472.224 304.228 471.964 304.02 471.703C303.837 471.495 303.603 471.286 303.316 471.078C303.056 470.844 302.743 470.661 302.379 470.531C303.056 470.661 303.707 470.753 304.332 470.805C304.957 470.857 305.53 470.909 306.051 470.961C306.65 471.013 307.223 471.052 307.77 471.078ZM297.965 485.648C297.47 485.831 297.066 486.143 296.754 486.586C296.467 487.029 296.233 487.562 296.051 488.188C295.868 488.786 295.738 489.438 295.66 490.141C295.608 490.818 295.569 491.482 295.543 492.133C295.543 492.758 295.543 493.331 295.543 493.852C295.543 494.372 295.543 494.763 295.543 495.023C295.543 495.18 295.569 495.466 295.621 495.883C295.699 496.273 295.855 496.69 296.09 497.133C296.324 497.549 296.65 497.927 297.066 498.266C297.509 498.604 298.095 498.773 298.824 498.773C299.423 498.721 300.061 498.513 300.738 498.148C301.337 497.836 302.014 497.341 302.77 496.664C303.551 495.961 304.384 494.958 305.27 493.656C305.217 492.823 305.178 492.133 305.152 491.586C305.152 491.039 305.139 490.596 305.113 490.258C305.087 489.867 305.074 489.555 305.074 489.32V488.734C305.074 488.578 305.074 488.409 305.074 488.227C305.074 488.044 305.087 487.875 305.113 487.719C304.384 487.198 303.733 486.755 303.16 486.391C302.613 486 302.066 485.714 301.52 485.531C300.999 485.323 300.452 485.232 299.879 485.258C299.332 485.258 298.694 485.388 297.965 485.648ZM322.418 494.711C323.147 494.711 323.824 494.633 324.449 494.477C324.97 494.346 325.465 494.138 325.934 493.852C326.428 493.539 326.754 493.083 326.91 492.484C327.431 492.589 327.874 492.68 328.238 492.758C328.603 492.81 328.915 492.862 329.176 492.914C329.462 492.992 329.71 493.044 329.918 493.07C330.126 493.122 330.374 493.174 330.66 493.227C330.921 493.279 331.233 493.344 331.598 493.422C331.988 493.474 332.444 493.552 332.965 493.656C332.574 493.604 332.171 493.643 331.754 493.773C331.363 493.904 330.986 494.047 330.621 494.203C330.204 494.385 329.814 494.607 329.449 494.867C329.215 495.023 328.941 495.258 328.629 495.57C328.342 495.883 327.926 496.182 327.379 496.469C326.832 496.755 326.103 497.003 325.191 497.211C324.306 497.393 323.16 497.458 321.754 497.406C320.061 497.354 318.642 497.055 317.496 496.508C316.35 495.935 315.426 495.245 314.723 494.438C314.02 493.604 313.512 492.706 313.199 491.742C312.887 490.779 312.717 489.88 312.691 489.047C312.665 488.214 312.913 487.341 313.434 486.43C313.954 485.518 314.684 484.685 315.621 483.93C316.585 483.174 317.743 482.562 319.098 482.094C320.452 481.599 321.936 481.352 323.551 481.352C324.488 481.352 325.348 481.469 326.129 481.703C326.936 481.911 327.665 482.198 328.316 482.562C328.993 482.927 329.579 483.344 330.074 483.812C330.569 484.255 330.986 484.711 331.324 485.18C331.663 485.674 331.949 486.195 332.184 486.742C332.392 487.211 332.561 487.745 332.691 488.344C332.822 488.943 332.861 489.555 332.809 490.18C330.829 490.232 329.228 490.271 328.004 490.297C326.806 490.323 325.868 490.336 325.191 490.336H323.434H322.105C321.637 490.336 321.025 490.349 320.27 490.375C319.514 490.401 318.59 490.44 317.496 490.492C317.626 491.534 317.952 492.341 318.473 492.914C319.02 493.461 319.592 493.878 320.191 494.164C320.868 494.477 321.611 494.659 322.418 494.711ZM318.902 487.68C319.736 487.732 320.426 487.771 320.973 487.797C321.546 487.823 322.014 487.849 322.379 487.875C322.77 487.901 323.082 487.914 323.316 487.914H324.293C324.944 487.914 326.155 487.875 327.926 487.797C327.848 486.651 327.6 485.779 327.184 485.18C326.793 484.581 326.376 484.138 325.934 483.852C325.413 483.539 324.84 483.357 324.215 483.305C322.522 483.331 321.259 483.682 320.426 484.359C319.618 485.036 319.111 486.143 318.902 487.68Z" fill="white"/>
</svg>
